<svg xmlns="http://www.w3.org/2000/svg" width="1100" height="1120" viewBox="0 0 1100 1120"><defs><linearGradient id="water" x1="0" y1="0" x2="1" y2="1"><stop stop-color="#c9e4dc"/><stop offset=".48" stop-color="#b0d7d5"/><stop offset="1" stop-color="#93c5c9"/></linearGradient><pattern id="grain" width="31" height="27" patternUnits="userSpaceOnUse"><circle cx="3" cy="7" r=".7" fill="#cbbb9b" opacity=".2"/><circle cx="18" cy="21" r=".5" fill="#b9b99c" opacity=".16"/></pattern></defs><rect width="1100" height="1120" rx="22" fill="#faf5e8"/><rect width="1100" height="1120" fill="url(#grain)"/><rect x="19" y="19" width="1062" height="1082" rx="10" fill="none" stroke="#d9d4ba" stroke-width="1"/><g font-family="Arial, PingFang SC, Microsoft YaHei, sans-serif"><path d="M465 285Q617 213 763 296L982 398 986 505 797 504 665 470 487 422Z" fill="#eef0da" stroke="none" stroke-width="1.8" stroke-linecap="round" stroke-linejoin="round" /><path d="M90 617Q214 560 344 624L471 774 434 936 244 966 108 888Z" fill="#e8ebd4" stroke="none" stroke-width="1.8" stroke-linecap="round" stroke-linejoin="round" /><path d="M703 708Q832 640 979 726L1012 887 923 969 723 958 659 828Z" fill="#e9ecd4" stroke="none" stroke-width="1.8" stroke-linecap="round" stroke-linejoin="round" /><g transform="translate(170 567) rotate(0) scale(0.8)"><path d="M-74 23Q-45 3-38-31Q-32-57-15-39Q3-83 22-36Q28-18 40-26Q52-28 67 23Z" fill="#d4dfc5" stroke="#b3c4a8" stroke-width="1.4" stroke-linecap="round" stroke-linejoin="round" /><path d="M-44 17Q-25-9-18-29M-9 13Q-2-15 7-43M23 13Q23-1 30-16" fill="none" stroke="#b0c19e" stroke-width="1.2" stroke-linecap="round" stroke-linejoin="round" /></g><g transform="translate(316 566) rotate(0) scale(0.85)"><path d="M-74 23Q-45 3-38-31Q-32-57-15-39Q3-83 22-36Q28-18 40-26Q52-28 67 23Z" fill="#d4dfc5" stroke="#b3c4a8" stroke-width="1.4" stroke-linecap="round" stroke-linejoin="round" /><path d="M-44 17Q-25-9-18-29M-9 13Q-2-15 7-43M23 13Q23-1 30-16" fill="none" stroke="#b0c19e" stroke-width="1.2" stroke-linecap="round" stroke-linejoin="round" /></g><g transform="translate(384 678) rotate(0) scale(0.55)"><path d="M-74 23Q-45 3-38-31Q-32-57-15-39Q3-83 22-36Q28-18 40-26Q52-28 67 23Z" fill="#d4dfc5" stroke="#b3c4a8" stroke-width="1.4" stroke-linecap="round" stroke-linejoin="round" /><path d="M-44 17Q-25-9-18-29M-9 13Q-2-15 7-43M23 13Q23-1 30-16" fill="none" stroke="#b0c19e" stroke-width="1.2" stroke-linecap="round" stroke-linejoin="round" /></g><g transform="translate(123 848) rotate(0) scale(0.63)"><path d="M-74 23Q-45 3-38-31Q-32-57-15-39Q3-83 22-36Q28-18 40-26Q52-28 67 23Z" fill="#d4dfc5" stroke="#b3c4a8" stroke-width="1.4" stroke-linecap="round" stroke-linejoin="round" /><path d="M-44 17Q-25-9-18-29M-9 13Q-2-15 7-43M23 13Q23-1 30-16" fill="none" stroke="#b0c19e" stroke-width="1.2" stroke-linecap="round" stroke-linejoin="round" /></g><g transform="translate(907 620) rotate(0) scale(0.7)"><path d="M-74 23Q-45 3-38-31Q-32-57-15-39Q3-83 22-36Q28-18 40-26Q52-28 67 23Z" fill="#d4dfc5" stroke="#b3c4a8" stroke-width="1.4" stroke-linecap="round" stroke-linejoin="round" /><path d="M-44 17Q-25-9-18-29M-9 13Q-2-15 7-43M23 13Q23-1 30-16" fill="none" stroke="#b0c19e" stroke-width="1.2" stroke-linecap="round" stroke-linejoin="round" /></g><g transform="translate(1010 818) rotate(0) scale(0.48)"><path d="M-74 23Q-45 3-38-31Q-32-57-15-39Q3-83 22-36Q28-18 40-26Q52-28 67 23Z" fill="#d4dfc5" stroke="#b3c4a8" stroke-width="1.4" stroke-linecap="round" stroke-linejoin="round" /><path d="M-44 17Q-25-9-18-29M-9 13Q-2-15 7-43M23 13Q23-1 30-16" fill="none" stroke="#b0c19e" stroke-width="1.2" stroke-linecap="round" stroke-linejoin="round" /></g><g transform="translate(698 861) rotate(0) scale(0.55)"><path d="M-74 23Q-45 3-38-31Q-32-57-15-39Q3-83 22-36Q28-18 40-26Q52-28 67 23Z" fill="#d4dfc5" stroke="#b3c4a8" stroke-width="1.4" stroke-linecap="round" stroke-linejoin="round" /><path d="M-44 17Q-25-9-18-29M-9 13Q-2-15 7-43M23 13Q23-1 30-16" fill="none" stroke="#b0c19e" stroke-width="1.2" stroke-linecap="round" stroke-linejoin="round" /></g><g transform="translate(156 718) rotate(0) scale(0.83)"><path d="M-72-24Q-29-54 22-31L65-17 62 66-65 69Z" fill="#b8c4a1" stroke="#94a784" stroke-width="1.7" stroke-linecap="round" stroke-linejoin="round" /><path d="M-54-16Q-13-31 30-16L36 69H-44Z" fill="#e5f4ef" stroke="#94c3c5" stroke-width="1.3" stroke-linecap="round" stroke-linejoin="round" /><path d="M-42-15Q-49 24 -40 66" fill="none" stroke="#fffef2" stroke-width="2" stroke-linecap="round" stroke-linejoin="round" /><path d="M-34-15Q-41 24 -32 66" fill="none" stroke="#8dbec0" stroke-width="2" stroke-linecap="round" stroke-linejoin="round" /><path d="M-26-15Q-33 24 -24 66" fill="none" stroke="#fffef2" stroke-width="2" stroke-linecap="round" stroke-linejoin="round" /><path d="M-18-15Q-25 24 -16 66" fill="none" stroke="#8dbec0" stroke-width="2" stroke-linecap="round" stroke-linejoin="round" /><path d="M-10-15Q-17 24 -8 66" fill="none" stroke="#fffef2" stroke-width="2" stroke-linecap="round" stroke-linejoin="round" /><path d="M-2-15Q-9 24 0 66" fill="none" stroke="#8dbec0" stroke-width="2" stroke-linecap="round" stroke-linejoin="round" /><path d="M6-15Q-1 24 8 66" fill="none" stroke="#fffef2" stroke-width="2" stroke-linecap="round" stroke-linejoin="round" /><path d="M14-15Q7 24 16 66" fill="none" stroke="#8dbec0" stroke-width="2" stroke-linecap="round" stroke-linejoin="round" /><path d="M22-15Q15 24 24 66" fill="none" stroke="#fffef2" stroke-width="2" stroke-linecap="round" stroke-linejoin="round" /><ellipse cx="-5" cy="73" rx="66" ry="15" fill="#b5d6c7" stroke="#89b5b1" stroke-width="1.4"/><path d="M-61 74q21-10 42 0t42 0M-41 81q18-6 36 0t25 0" fill="none" stroke="#eff6e5" stroke-width="2" stroke-linecap="round" stroke-linejoin="round" /></g><g transform="translate(334 891) rotate(0) scale(0.7)"><path d="M-61 12Q0-43 61 12L60 28Q0-20-60 28Z" fill="#d8cba9" stroke="#9c9d79" stroke-width="1.4" stroke-linecap="round" stroke-linejoin="round" /><path d="M-48 10v-12" fill="none" stroke="#8c9675" stroke-width="2" stroke-linecap="round" stroke-linejoin="round" /><path d="M-32 10v-12" fill="none" stroke="#8c9675" stroke-width="2" stroke-linecap="round" stroke-linejoin="round" /><path d="M-16 10v-12" fill="none" stroke="#8c9675" stroke-width="2" stroke-linecap="round" stroke-linejoin="round" /><path d="M0 10v-12" fill="none" stroke="#8c9675" stroke-width="2" stroke-linecap="round" stroke-linejoin="round" /><path d="M16 10v-12" fill="none" stroke="#8c9675" stroke-width="2" stroke-linecap="round" stroke-linejoin="round" /><path d="M32 10v-12" fill="none" stroke="#8c9675" stroke-width="2" stroke-linecap="round" stroke-linejoin="round" /><path d="M48 10v-12" fill="none" stroke="#8c9675" stroke-width="2" stroke-linecap="round" stroke-linejoin="round" /><path d="M-59 4Q0-40 59 4" fill="none" stroke="#a3a07f" stroke-width="2" stroke-linecap="round" stroke-linejoin="round" /><path d="M-68 39q25-9 50 0t50 0t30 0" fill="none" stroke="#88bac0" stroke-width="2" stroke-linecap="round" stroke-linejoin="round" /></g><path d="M139 788Q157 824 230 878T412 925" fill="none" stroke="#a9cebe" stroke-width="9" stroke-linecap="round" stroke-linejoin="round" /><g transform="translate(714 343) rotate(0) scale(0.74)"><g transform="translate(-29 -15) rotate(0) scale(0.72)"><path d="M-31-8V32H30V-8Z" fill="#fcf7e9" stroke="#7b8b80" stroke-width="1.5" stroke-linecap="round" stroke-linejoin="round" /><path d="M-40-8-28-15-20-27H20L28-15 40-8Z" fill="#789891" stroke="#526f6c" stroke-width="1.4" stroke-linecap="round" stroke-linejoin="round" /><path d="M-27-17H27M-30-12H30M-35-7H35" fill="none" stroke="#b0c1ad" stroke-width="1" stroke-linecap="round" stroke-linejoin="round" /><path d="M-19-27 0-37 20-27Z" fill="#f4eddf" stroke="#69847b" stroke-width="1.3" stroke-linecap="round" stroke-linejoin="round" /><path d="M-6 32V9H6V32M-25 7h10v10h-10ZM15 7h10v10H15Z" fill="#b7c7b9" stroke="#768d82" stroke-width="1.2" stroke-linecap="round" stroke-linejoin="round" /><path d="M-31 27H30M-11-4H11M0-34V-28" fill="none" stroke="#b6b59c" stroke-width="1" stroke-linecap="round" stroke-linejoin="round" /></g><g transform="translate(29 -13) rotate(0) scale(0.67)"><path d="M-31-8V32H30V-8Z" fill="#fcf7e9" stroke="#7b8b80" stroke-width="1.5" stroke-linecap="round" stroke-linejoin="round" /><path d="M-40-8-28-15-20-27H20L28-15 40-8Z" fill="#789891" stroke="#526f6c" stroke-width="1.4" stroke-linecap="round" stroke-linejoin="round" /><path d="M-27-17H27M-30-12H30M-35-7H35" fill="none" stroke="#b0c1ad" stroke-width="1" stroke-linecap="round" stroke-linejoin="round" /><path d="M-19-27 0-37 20-27Z" fill="#f4eddf" stroke="#69847b" stroke-width="1.3" stroke-linecap="round" stroke-linejoin="round" /><path d="M-6 32V9H6V32M-25 7h10v10h-10ZM15 7h10v10H15Z" fill="#b7c7b9" stroke="#768d82" stroke-width="1.2" stroke-linecap="round" stroke-linejoin="round" /><path d="M-31 27H30M-11-4H11M0-34V-28" fill="none" stroke="#b6b59c" stroke-width="1" stroke-linecap="round" stroke-linejoin="round" /></g><g transform="translate(0 12) rotate(0) scale(0.92)"><path d="M-31-8V32H30V-8Z" fill="#fcf7e9" stroke="#7b8b80" stroke-width="1.5" stroke-linecap="round" stroke-linejoin="round" /><path d="M-40-8-28-15-20-27H20L28-15 40-8Z" fill="#789891" stroke="#526f6c" stroke-width="1.4" stroke-linecap="round" stroke-linejoin="round" /><path d="M-27-17H27M-30-12H30M-35-7H35" fill="none" stroke="#b0c1ad" stroke-width="1" stroke-linecap="round" stroke-linejoin="round" /><path d="M-19-27 0-37 20-27Z" fill="#f4eddf" stroke="#69847b" stroke-width="1.3" stroke-linecap="round" stroke-linejoin="round" /><path d="M-6 32V9H6V32M-25 7h10v10h-10ZM15 7h10v10H15Z" fill="#b7c7b9" stroke="#768d82" stroke-width="1.2" stroke-linecap="round" stroke-linejoin="round" /><path d="M-31 27H30M-11-4H11M0-34V-28" fill="none" stroke="#b6b59c" stroke-width="1" stroke-linecap="round" stroke-linejoin="round" /></g><path d="M-48 50Q-17 41 6 47T53 50" fill="none" stroke="#c9b998" stroke-width="2" stroke-linecap="round" stroke-linejoin="round" /></g><g transform="translate(476 302) rotate(0) scale(0.56)"><path d="M-21 0V14H21V0" fill="#faf0d8" stroke="#7f8e7d" stroke-width="1.2" stroke-linecap="round" stroke-linejoin="round" /><path d="M-30 2Q-23 0 -19 -5H19Q23 0 30 2Z" fill="#708f89" stroke="#566e65" stroke-width="1.2" stroke-linecap="round" stroke-linejoin="round" /><path d="M-3 5v7M3 5v7" fill="none" stroke="#9b9e84" stroke-width="1" stroke-linecap="round" stroke-linejoin="round" /><path d="M-17 -14V0H17V-14" fill="#faf0d8" stroke="#7f8e7d" stroke-width="1.2" stroke-linecap="round" stroke-linejoin="round" /><path d="M-26 -12Q-19 -14 -15 -19H15Q19 -14 26 -12Z" fill="#708f89" stroke="#566e65" stroke-width="1.2" stroke-linecap="round" stroke-linejoin="round" /><path d="M-3 -9v7M3 -9v7" fill="none" stroke="#9b9e84" stroke-width="1" stroke-linecap="round" stroke-linejoin="round" /><path d="M-13 -28V-14H13V-28" fill="#faf0d8" stroke="#7f8e7d" stroke-width="1.2" stroke-linecap="round" stroke-linejoin="round" /><path d="M-22 -26Q-15 -28 -11 -33H11Q15 -28 22 -26Z" fill="#708f89" stroke="#566e65" stroke-width="1.2" stroke-linecap="round" stroke-linejoin="round" /><path d="M-3 -23v7M3 -23v7" fill="none" stroke="#9b9e84" stroke-width="1" stroke-linecap="round" stroke-linejoin="round" /><path d="M-9 -42V-28H9V-42" fill="#faf0d8" stroke="#7f8e7d" stroke-width="1.2" stroke-linecap="round" stroke-linejoin="round" /><path d="M-18 -40Q-11 -42 -7 -47H7Q11 -42 18 -40Z" fill="#708f89" stroke="#566e65" stroke-width="1.2" stroke-linecap="round" stroke-linejoin="round" /><path d="M-3 -37v7M3 -37v7" fill="none" stroke="#9b9e84" stroke-width="1" stroke-linecap="round" stroke-linejoin="round" /><path d="M0-53V-62M-31 18H31" fill="none" stroke="#687e6b" stroke-width="2" stroke-linecap="round" stroke-linejoin="round" /></g><g transform="translate(461.40236022127726 214.51065113798785) rotate(0) scale(0.37563665533246327)"><path d="M0-7V23" fill="none" stroke="#8b8870" stroke-width="2" stroke-linecap="round" stroke-linejoin="round" /><ellipse cx="0" cy="-10" rx="19" ry="25" fill="#cbd4a1" stroke="#97ab7c" stroke-width="1.2"/><path d="M0 17V-17M0 3-8-7M0-4 7-15" fill="none" stroke="#829875" stroke-width="1" stroke-linecap="round" stroke-linejoin="round" /></g><g transform="translate(402.7159918168418 219.25814677810564) rotate(0) scale(0.31850335548851333)"><path d="M0-7V23" fill="none" stroke="#8b8870" stroke-width="2" stroke-linecap="round" stroke-linejoin="round" /><path d="M0-39-13-14-7-15-19 3-9 1-23 17Q0 25 23 17L9 1 19 3 7-15 13-14Z" fill="#a9c2a0" stroke="#739572" stroke-width="1.4" stroke-linecap="round" stroke-linejoin="round" /><path d="M0-31V16M0-4-7-10M0 8 12 2" fill="none" stroke="#739572" stroke-width="1" stroke-linecap="round" stroke-linejoin="round" /></g><g transform="translate(406.57241738737355 219.5279304482734) rotate(0) scale(0.33303821567740527)"><path d="M0-7V23" fill="none" stroke="#8b8870" stroke-width="2" stroke-linecap="round" stroke-linejoin="round" /><path d="M0-39-13-14-7-15-19 3-9 1-23 17Q0 25 23 17L9 1 19 3 7-15 13-14Z" fill="#a9c2a0" stroke="#739572" stroke-width="1.4" stroke-linecap="round" stroke-linejoin="round" /><path d="M0-31V16M0-4-7-10M0 8 12 2" fill="none" stroke="#739572" stroke-width="1" stroke-linecap="round" stroke-linejoin="round" /></g><g transform="translate(413.90084917154735 242.26289964822683) rotate(0) scale(0.35768445911059826)"><path d="M0-7V23" fill="none" stroke="#8b8870" stroke-width="2" stroke-linecap="round" stroke-linejoin="round" /><ellipse cx="0" cy="-10" rx="19" ry="25" fill="#cbd4a1" stroke="#97ab7c" stroke-width="1.2"/><path d="M0 17V-17M0 3-8-7M0-4 7-15" fill="none" stroke="#829875" stroke-width="1" stroke-linecap="round" stroke-linejoin="round" /></g><g transform="translate(456.40819180161105 250.4668080694965) rotate(0) scale(0.43077817189059364)"><path d="M0-7V23" fill="none" stroke="#8b8870" stroke-width="2" stroke-linecap="round" stroke-linejoin="round" /><path d="M0-39-13-14-7-15-19 3-9 1-23 17Q0 25 23 17L9 1 19 3 7-15 13-14Z" fill="#a9c2a0" stroke="#739572" stroke-width="1.4" stroke-linecap="round" stroke-linejoin="round" /><path d="M0-31V16M0-4-7-10M0 8 12 2" fill="none" stroke="#739572" stroke-width="1" stroke-linecap="round" stroke-linejoin="round" /></g><g transform="translate(971 415) rotate(-15) scale(0.65)"><path d="M-35 3-4-4 7-32 14-32 11-3 39 7 40 13 8 8 1 24-5 24-5 6-34 10Z" fill="#ebd9b0" stroke="#9e946d" stroke-width="1.5" stroke-linecap="round" stroke-linejoin="round" /></g><path d="M908 807Q846 843 799 875T739 944" fill="none" stroke="#9cc7b5" stroke-width="8" stroke-linecap="round" stroke-linejoin="round" /><g transform="translate(727 912) rotate(0) scale(0.65)"><path d="M-61 12Q0-43 61 12L60 28Q0-20-60 28Z" fill="#d8cba9" stroke="#9c9d79" stroke-width="1.4" stroke-linecap="round" stroke-linejoin="round" /><path d="M-48 10v-12" fill="none" stroke="#8c9675" stroke-width="2" stroke-linecap="round" stroke-linejoin="round" /><path d="M-32 10v-12" fill="none" stroke="#8c9675" stroke-width="2" stroke-linecap="round" stroke-linejoin="round" /><path d="M-16 10v-12" fill="none" stroke="#8c9675" stroke-width="2" stroke-linecap="round" stroke-linejoin="round" /><path d="M0 10v-12" fill="none" stroke="#8c9675" stroke-width="2" stroke-linecap="round" stroke-linejoin="round" /><path d="M16 10v-12" fill="none" stroke="#8c9675" stroke-width="2" stroke-linecap="round" stroke-linejoin="round" /><path d="M32 10v-12" fill="none" stroke="#8c9675" stroke-width="2" stroke-linecap="round" stroke-linejoin="round" /><path d="M48 10v-12" fill="none" stroke="#8c9675" stroke-width="2" stroke-linecap="round" stroke-linejoin="round" /><path d="M-59 4Q0-40 59 4" fill="none" stroke="#a3a07f" stroke-width="2" stroke-linecap="round" stroke-linejoin="round" /><path d="M-68 39q25-9 50 0t50 0t30 0" fill="none" stroke="#88bac0" stroke-width="2" stroke-linecap="round" stroke-linejoin="round" /></g><g transform="translate(789.4851088566628 823.4298717702671) rotate(0) scale(0.5966483946519209)"><path d="M0-7V23" fill="none" stroke="#8b8870" stroke-width="2" stroke-linecap="round" stroke-linejoin="round" /><ellipse cx="0" cy="-10" rx="19" ry="25" fill="#cbd4a1" stroke="#97ab7c" stroke-width="1.2"/><path d="M0 17V-17M0 3-8-7M0-4 7-15" fill="none" stroke="#829875" stroke-width="1" stroke-linecap="round" stroke-linejoin="round" /></g><g transform="translate(804.874011053063 825.4649482508951) rotate(0) scale(0.5227211621330677)"><path d="M0-7V23" fill="none" stroke="#8b8870" stroke-width="2" stroke-linecap="round" stroke-linejoin="round" /><path d="M0-39-13-14-7-15-19 3-9 1-23 17Q0 25 23 17L9 1 19 3 7-15 13-14Z" fill="#a9c2a0" stroke="#739572" stroke-width="1.4" stroke-linecap="round" stroke-linejoin="round" /><path d="M0-31V16M0-4-7-10M0 8 12 2" fill="none" stroke="#739572" stroke-width="1" stroke-linecap="round" stroke-linejoin="round" /></g><g transform="translate(756.034502630875 826.1907139543129) rotate(0) scale(0.45048374063727104)"><path d="M0-7V23" fill="none" stroke="#8b8870" stroke-width="2" stroke-linecap="round" stroke-linejoin="round" /><path d="M0-39-13-14-7-15-19 3-9 1-23 17Q0 25 23 17L9 1 19 3 7-15 13-14Z" fill="#a9c2a0" stroke="#739572" stroke-width="1.4" stroke-linecap="round" stroke-linejoin="round" /><path d="M0-31V16M0-4-7-10M0 8 12 2" fill="none" stroke="#739572" stroke-width="1" stroke-linecap="round" stroke-linejoin="round" /></g><g transform="translate(759.8119053811699 826.2915911669028) rotate(0) scale(0.5192512128327667)"><path d="M0-7V23" fill="none" stroke="#8b8870" stroke-width="2" stroke-linecap="round" stroke-linejoin="round" /><ellipse cx="0" cy="-10" rx="19" ry="25" fill="#cbd4a1" stroke="#97ab7c" stroke-width="1.2"/><path d="M0 17V-17M0 3-8-7M0-4 7-15" fill="none" stroke="#829875" stroke-width="1" stroke-linecap="round" stroke-linejoin="round" /></g><g transform="translate(727.4807566427247 826.4783282300534) rotate(0) scale(0.5125036922543155)"><path d="M0-7V23" fill="none" stroke="#8b8870" stroke-width="2" stroke-linecap="round" stroke-linejoin="round" /><path d="M0-39-13-14-7-15-19 3-9 1-23 17Q0 25 23 17L9 1 19 3 7-15 13-14Z" fill="#a9c2a0" stroke="#739572" stroke-width="1.4" stroke-linecap="round" stroke-linejoin="round" /><path d="M0-31V16M0-4-7-10M0 8 12 2" fill="none" stroke="#739572" stroke-width="1" stroke-linecap="round" stroke-linejoin="round" /></g><g transform="translate(765.7777785824748 829.9808434680402) rotate(0) scale(0.6128992906173173)"><path d="M0-7V23" fill="none" stroke="#8b8870" stroke-width="2" stroke-linecap="round" stroke-linejoin="round" /><path d="M0-39-13-14-7-15-19 3-9 1-23 17Q0 25 23 17L9 1 19 3 7-15 13-14Z" fill="#a9c2a0" stroke="#739572" stroke-width="1.4" stroke-linecap="round" stroke-linejoin="round" /><path d="M0-31V16M0-4-7-10M0 8 12 2" fill="none" stroke="#739572" stroke-width="1" stroke-linecap="round" stroke-linejoin="round" /></g><g transform="translate(715.3732689078304 831.2351642892498) rotate(0) scale(0.5528402835401388)"><path d="M0-7V23" fill="none" stroke="#8b8870" stroke-width="2" stroke-linecap="round" stroke-linejoin="round" /><ellipse cx="0" cy="-10" rx="19" ry="25" fill="#cbd4a1" stroke="#97ab7c" stroke-width="1.2"/><path d="M0 17V-17M0 3-8-7M0-4 7-15" fill="none" stroke="#829875" stroke-width="1" stroke-linecap="round" stroke-linejoin="round" /></g><g transform="translate(746.5493928034992 857.6929398150534) rotate(0) scale(0.45726073401337464)"><path d="M0-7V23" fill="none" stroke="#8b8870" stroke-width="2" stroke-linecap="round" stroke-linejoin="round" /><path d="M0-39-13-14-7-15-19 3-9 1-23 17Q0 25 23 17L9 1 19 3 7-15 13-14Z" fill="#a9c2a0" stroke="#739572" stroke-width="1.4" stroke-linecap="round" stroke-linejoin="round" /><path d="M0-31V16M0-4-7-10M0 8 12 2" fill="none" stroke="#739572" stroke-width="1" stroke-linecap="round" stroke-linejoin="round" /></g><g transform="translate(996.8828523213868 916.3256279748792) rotate(0) scale(0.7422376635212949)"><path d="M0-7V23" fill="none" stroke="#8b8870" stroke-width="2" stroke-linecap="round" stroke-linejoin="round" /><ellipse cx="0" cy="-10" rx="19" ry="25" fill="#cbd4a1" stroke="#97ab7c" stroke-width="1.2"/><path d="M0 17V-17M0 3-8-7M0-4 7-15" fill="none" stroke="#829875" stroke-width="1" stroke-linecap="round" stroke-linejoin="round" /></g><g transform="translate(987.7003859883273 920.8645427223172) rotate(0) scale(0.6507790886612194)"><path d="M0-7V23" fill="none" stroke="#8b8870" stroke-width="2" stroke-linecap="round" stroke-linejoin="round" /><path d="M0-39-13-14-7-15-19 3-9 1-23 17Q0 25 23 17L9 1 19 3 7-15 13-14Z" fill="#a9c2a0" stroke="#739572" stroke-width="1.4" stroke-linecap="round" stroke-linejoin="round" /><path d="M0-31V16M0-4-7-10M0 8 12 2" fill="none" stroke="#739572" stroke-width="1" stroke-linecap="round" stroke-linejoin="round" /></g><g transform="translate(958.8266224868336 929.2627048500644) rotate(0) scale(0.5514844535879004)"><path d="M0-7V23" fill="none" stroke="#8b8870" stroke-width="2" stroke-linecap="round" stroke-linejoin="round" /><path d="M0-39-13-14-7-15-19 3-9 1-23 17Q0 25 23 17L9 1 19 3 7-15 13-14Z" fill="#a9c2a0" stroke="#739572" stroke-width="1.4" stroke-linecap="round" stroke-linejoin="round" /><path d="M0-31V16M0-4-7-10M0 8 12 2" fill="none" stroke="#739572" stroke-width="1" stroke-linecap="round" stroke-linejoin="round" /></g><g transform="translate(971.1727109441163 937.8558638928483) rotate(0) scale(0.5538500473046137)"><path d="M0-7V23" fill="none" stroke="#8b8870" stroke-width="2" stroke-linecap="round" stroke-linejoin="round" /><ellipse cx="0" cy="-10" rx="19" ry="25" fill="#cbd4a1" stroke="#97ab7c" stroke-width="1.2"/><path d="M0 17V-17M0 3-8-7M0-4 7-15" fill="none" stroke="#829875" stroke-width="1" stroke-linecap="round" stroke-linejoin="round" /></g><g transform="translate(963.0328423136873 938.611649778939) rotate(0) scale(0.6093418682587161)"><path d="M0-7V23" fill="none" stroke="#8b8870" stroke-width="2" stroke-linecap="round" stroke-linejoin="round" /><path d="M0-39-13-14-7-15-19 3-9 1-23 17Q0 25 23 17L9 1 19 3 7-15 13-14Z" fill="#a9c2a0" stroke="#739572" stroke-width="1.4" stroke-linecap="round" stroke-linejoin="round" /><path d="M0-31V16M0-4-7-10M0 8 12 2" fill="none" stroke="#739572" stroke-width="1" stroke-linecap="round" stroke-linejoin="round" /></g><g transform="translate(971.1859968008578 951.5405477779641) rotate(0) scale(0.47762161858153407)"><path d="M0-7V23" fill="none" stroke="#8b8870" stroke-width="2" stroke-linecap="round" stroke-linejoin="round" /><path d="M0-39-13-14-7-15-19 3-9 1-23 17Q0 25 23 17L9 1 19 3 7-15 13-14Z" fill="#a9c2a0" stroke="#739572" stroke-width="1.4" stroke-linecap="round" stroke-linejoin="round" /><path d="M0-31V16M0-4-7-10M0 8 12 2" fill="none" stroke="#739572" stroke-width="1" stroke-linecap="round" stroke-linejoin="round" /></g><g transform="translate(956.3393838711047 955.309898259873) rotate(0) scale(0.642451763818957)"><path d="M0-7V23" fill="none" stroke="#8b8870" stroke-width="2" stroke-linecap="round" stroke-linejoin="round" /><ellipse cx="0" cy="-10" rx="19" ry="25" fill="#cbd4a1" stroke="#97ab7c" stroke-width="1.2"/><path d="M0 17V-17M0 3-8-7M0-4 7-15" fill="none" stroke="#829875" stroke-width="1" stroke-linecap="round" stroke-linejoin="round" /></g><g transform="translate(408.5034627930945 856.0810741472329) rotate(0) scale(0.3949027865051456)"><path d="M0-7V23" fill="none" stroke="#8b8870" stroke-width="2" stroke-linecap="round" stroke-linejoin="round" /><ellipse cx="0" cy="-10" rx="19" ry="25" fill="#cbd4a1" stroke="#97ab7c" stroke-width="1.2"/><path d="M0 17V-17M0 3-8-7M0-4 7-15" fill="none" stroke="#829875" stroke-width="1" stroke-linecap="round" stroke-linejoin="round" /></g><g transform="translate(360.0451714885071 876.1409281441884) rotate(0) scale(0.5092137443631224)"><path d="M0-7V23" fill="none" stroke="#8b8870" stroke-width="2" stroke-linecap="round" stroke-linejoin="round" /><path d="M0-39-13-14-7-15-19 3-9 1-23 17Q0 25 23 17L9 1 19 3 7-15 13-14Z" fill="#a9c2a0" stroke="#739572" stroke-width="1.4" stroke-linecap="round" stroke-linejoin="round" /><path d="M0-31V16M0-4-7-10M0 8 12 2" fill="none" stroke="#739572" stroke-width="1" stroke-linecap="round" stroke-linejoin="round" /></g><g transform="translate(407.0254257064445 880.9865317548947) rotate(0) scale(0.49364216384635545)"><path d="M0-7V23" fill="none" stroke="#8b8870" stroke-width="2" stroke-linecap="round" stroke-linejoin="round" /><path d="M0-39-13-14-7-15-19 3-9 1-23 17Q0 25 23 17L9 1 19 3 7-15 13-14Z" fill="#a9c2a0" stroke="#739572" stroke-width="1.4" stroke-linecap="round" stroke-linejoin="round" /><path d="M0-31V16M0-4-7-10M0 8 12 2" fill="none" stroke="#739572" stroke-width="1" stroke-linecap="round" stroke-linejoin="round" /></g><g transform="translate(397.31603720738417 881.5069917968995) rotate(0) scale(0.4254253912917055)"><path d="M0-7V23" fill="none" stroke="#8b8870" stroke-width="2" stroke-linecap="round" stroke-linejoin="round" /><ellipse cx="0" cy="-10" rx="19" ry="25" fill="#cbd4a1" stroke="#97ab7c" stroke-width="1.2"/><path d="M0 17V-17M0 3-8-7M0-4 7-15" fill="none" stroke="#829875" stroke-width="1" stroke-linecap="round" stroke-linejoin="round" /></g><g transform="translate(439.3340083761663 884.0977021159863) rotate(0) scale(0.45227392742393974)"><path d="M0-7V23" fill="none" stroke="#8b8870" stroke-width="2" stroke-linecap="round" stroke-linejoin="round" /><path d="M0-39-13-14-7-15-19 3-9 1-23 17Q0 25 23 17L9 1 19 3 7-15 13-14Z" fill="#a9c2a0" stroke="#739572" stroke-width="1.4" stroke-linecap="round" stroke-linejoin="round" /><path d="M0-31V16M0-4-7-10M0 8 12 2" fill="none" stroke="#739572" stroke-width="1" stroke-linecap="round" stroke-linejoin="round" /></g><text x="127" y="939" font-size="21" fill="#637568" text-anchor="start" >安顺 · 山水与瀑布</text><text x="803" y="654" font-size="19" fill="#637568" text-anchor="start" >荔波 · 喀斯特绿洲</text><text x="713" y="267" font-size="23" fill="#637568" text-anchor="start" >贵阳</text><text x="704" y="291" font-size="11" fill="#637568" text-anchor="start" letter-spacing="2">GUIYANG</text><path d="M37 39H805V126H37Z" fill="#faf5e8" opacity=".95"/><g transform="translate(1015 95)"><path d="M0-37 7-7 0 0-7-7Z" fill="#6e8c7a" stroke="#6e8c7a" stroke-width="1" stroke-linecap="round" stroke-linejoin="round" /><path d="M0 0 7 7 0 37-7 7Z" fill="#e4dfc9" stroke="#95a18a" stroke-width="1" stroke-linecap="round" stroke-linejoin="round" /><path d="M-22 0H22M0-27V27" fill="none" stroke="#8c9b81" stroke-width="1" stroke-linecap="round" stroke-linejoin="round" /><text x="0" y="-48" font-size="15" fill="#637568" text-anchor="middle" >N</text></g><text x="1040" y="984" font-size="13" fill="#92977e" text-anchor="end" >01 / GUIZHOU</text><path d="M52 1003H1048" fill="none" stroke="#c4c5aa" stroke-width="1" stroke-linecap="round" stroke-linejoin="round" /><text x="55" y="1090" font-size="17" fill="#8b927b" text-anchor="start" >行程示意 · 地形与道路经艺术化简化 · 导航请使用高德</text></g></svg>